<?xml version="1.0" encoding="utf-8"?>
<!-- Svg Vector Icons : http://www.onlinewebfonts.com/icon -->
<!DOCTYPE svg PUBLIC "-//W3C//DTD SVG 1.1//EN" "http://www.w3.org/Graphics/SVG/1.1/DTD/svg11.dtd">
<svg version="1.1" xmlns="http://www.w3.org/2000/svg" xmlns:xlink="http://www.w3.org/1999/xlink" x="0px" y="0px" viewBox="0 0 256 256" enable-background="new 0 0 256 256" xml:space="preserve">
<metadata> Svg Vector Icons : http://www.onlinewebfonts.com/icon </metadata>
<g><g><path fill="#000000" d="M239.8,218.4l-51.9-51.9c14.6-17.5,23.3-39.9,23.3-64.4c0-55.6-45-100.6-100.6-100.6C55,1.4,10,46.4,10,102c0,55.6,45,100.6,100.6,100.6c15.8,0,30.7-3.6,44-10.1c0.8,1.2,1.7,2.4,2.8,3.4l52.4,52.4c8.3,8.3,21.7,8.3,30,0C248.1,240.1,248.1,226.7,239.8,218.4z M31.2,102c0-43.9,35.6-79.4,79.4-79.4c43.9,0,79.4,35.6,79.4,79.4c0,43.9-35.6,79.4-79.4,79.4C66.8,181.5,31.2,145.9,31.2,102z"/></g></g>
</svg>